{"title":"Saj Dhaj Ke (Mausam) - Full Song - H.264 - 720p DVDRip ~~~Abhina","uid":6960170,"size":123130403,"categoryP":"video","categoryS":"music_videos","magnet":"?xt=urn:btih:155411eb7cdcf1322d4d8ab7c76803faf2ced7c4&amp;dn=Saj+Dhaj+Ke+%28Mausam%29+-+Full+Song+-+H.264+-+720p+DVDRip+%7E%7E%7EAbhina&amp;tr=udp%3A%2F%2Ftracker.openbittorrent.com%3A80&amp;tr=udp%3A%2F%2Fopen.demonii.com%3A1337&amp;tr=udp%3A%2F%2Ftracker.coppersurfer.tk%3A6969&amp;tr=udp%3A%2F%2Fexodus.desync.com%3A6969","seeders":1,"leechers":0,"uploader":"AbhiHKRG","files":6,"time":1326733315,"description":"Cover :: &lt;a href=&quot;\nhttp://i.minus.com/ibi2WszLzpcegy.png&quot; rel=&quot;nofollow&quot; target=&quot;_NEW&quot;&gt;\nhttp://i.minus.com/ibi2WszLzpcegy.png&lt;/a&gt;\n\nScreen :: &lt;a href=&quot;\nhttp://i.minus.com/ibfvRu2RNeJ2zu.png&quot; rel=&quot;nofollow&quot; target=&quot;_NEW&quot;&gt;\nhttp://i.minus.com/ibfvRu2RNeJ2zu.png&lt;/a&gt;\n &lt;a href=&quot;\nhttp://i.minus.com/iSRgG68RdjpsF.png&quot; rel=&quot;nofollow&quot; target=&quot;_NEW&quot;&gt;\nhttp://i.minus.com/iSRgG68RdjpsF.png&lt;/a&gt;\n &lt;a href=&quot;\nhttp://i.minus.com/iSYwvLcTrdm8m.png&quot; rel=&quot;nofollow&quot; target=&quot;_NEW&quot;&gt;\nhttp://i.minus.com/iSYwvLcTrdm8m.png&lt;/a&gt;\n &lt;a href=&quot;\nhttp://i.minus.com/ib0niXYZAyusx1.png&quot; rel=&quot;nofollow&quot; target=&quot;_NEW&quot;&gt;\nhttp://i.minus.com/ib0niXYZAyusx1.png&lt;/a&gt;\n &lt;a href=&quot;\nhttp://i.minus.com/ibjj6KBVOuEsA1.png&quot; rel=&quot;nofollow&quot; target=&quot;_NEW&quot;&gt;\nhttp://i.minus.com/ibjj6KBVOuEsA1.png&lt;/a&gt;\n\n\nGeneral ::\nFormat                           : AVI\nFormat/Info                      : Audio Video Interleave\nFile size                        : 117 MiB\nDuration                         : 4mn 50s\nOverall bit rate                 : 3 386 Kbps\n\n\nVideo Info ::\nID                               : 0\nFormat                           : AVC\nFormat/Info                      : Advanced Video Codec\nFormat profile                   : &lt;a class=&quot;__cf_email__&quot; href=&quot;/cdn-cgi/l/email-protection&quot; data-cfemail=&quot;d39bbab4bb939fe6fde2&quot;&gt;[email&amp;#160;protected]&lt;/a&gt;&lt;script cf-hash='f9e31' type=&quot;text/javascript&quot;&gt;\n/* &lt;![CDATA[ */!function(){try{var t=&quot;currentScript&quot;in document?document.currentScript:function(){for(var t=document.getElementsByTagName(&quot;script&quot;),e=t.length;e--;)if(t[e].getAttribute(&quot;cf-hash&quot;))return t[e]}();if(t&amp;&amp;t.previousSibling){var e,r,n,i,c=t.previousSibling,a=c.getAttribute(&quot;data-cfemail&quot;);if(a){for(e=&quot;&quot;,r=parseInt(a.substr(0,2),16),n=2;a.length-n;n+=2)i=parseInt(a.substr(n,2),16)^r,e+=String.fromCharCode(i);e=document.createTextNode(e),c.parentNode.replaceChild(e,c)}}}catch(u){}}();/* ]]&gt; */&lt;/script&gt;\nFormat settings, CABAC           : Yes\nFormat settings, ReFrames        : 2 frames\nCodec ID                         : H264\nDuration                         : 10s 0ms\nBit rate                         : 3 056 Kbps\nWidth                            : 1 280 pixels\nHeight                           : 544 pixels\nDisplay aspect ratio             : 2.35:1\nFrame rate                       : 30.000 fps\nColor space                      : YUV\nChroma subsampling               : 4:2:0\nBit depth                        : 8 bits\nScan type                        : Progressive\nBits/(Pixel*Frame)               : 0.146\nStream size                      : 106 MiB (90%)\n\n\nAudio Info ::\nID                               : 1\nFormat                           : MPEG Audio\nFormat version                   : Version 1\nFormat profile                   : Layer 3\nCodec ID                         : 55\nCodec ID/Hint                    : MP3\nDuration                         : 4mn 50s\nBit rate mode                    : Constant\nBit rate                         : 320 Kbps\nChannel(s)                       : 2 channels\nSampling rate                    : 48.0 KHz\nCompression mode                 : Lossy\nStream size                      : 11.1 MiB (9%)","torrent":{"xt":"urn:btih:155411eb7cdcf1322d4d8ab7c76803faf2ced7c4","amp;dn":"Saj+Dhaj+Ke+%28Mausam%29+-+Full+Song+-+H.264+-+720p+DVDRip+%7E%7E%7EAbhina","amp;tr":["udp%3A%2F%2Ftracker.openbittorrent.com%3A80","udp%3A%2F%2Fopen.demonii.com%3A1337","udp%3A%2F%2Ftracker.coppersurfer.tk%3A6969","udp%3A%2F%2Fexodus.desync.com%3A6969"],"infoHash":"155411eb7cdcf1322d4d8ab7c76803faf2ced7c4","infoHashBuffer":{"type":"Buffer","data":[21,84,17,235,124,220,241,50,45,77,138,183,199,104,3,250,242,206,215,196]},"announce":[],"urlList":[]}}